<svg width="39" height="21" viewBox="0 0 39 21" fill="none" xmlns="http://www.w3.org/2000/svg">
<g clip-path="url(#clip0_211_2053)">
<path d="M38.5802 7.48028C38.5842 7.45126 38.5842 7.42192 38.5802 7.39289C38.584 7.36924 38.584 7.34513 38.5802 7.32142L38.2966 5.2801C38.2557 5.03587 38.1463 4.80761 37.9807 4.62084L37.932 4.56523L37.8429 4.47786L32.9331 0.331668L33.0709 0.466708C32.9582 0.334536 32.8167 0.228816 32.6569 0.157336C32.4971 0.0858551 32.3229 0.0504302 32.1473 0.0536743H30.6565C30.4141 0.0489656 30.1772 0.124525 29.984 0.268136C29.7812 0.12539 29.5369 0.0502171 29.2872 0.0536743H27.7965C27.601 0.0505644 27.4081 0.098136 27.2374 0.191587C27.0666 0.285037 26.9241 0.421048 26.8243 0.585845C26.6703 0.821223 26.6124 1.10482 26.6622 1.38014L26.8486 2.66688C26.7251 2.59827 26.5854 2.56267 26.4435 2.56363H19.2246C18.9656 2.56523 18.7126 2.63965 18.4954 2.77808C18.2854 2.90694 18.1169 3.09144 18.0093 3.31025L17.4503 2.84163C17.2302 2.64204 16.9398 2.53386 16.6401 2.5398H5.31354C5.05362 2.54444 4.79947 2.61563 4.57628 2.74632C4.27094 2.92153 4.04716 3.20642 3.95241 3.5406L0.355144 15.3358C0.28793 15.5302 0.281318 15.7398 0.336155 15.9378C0.390992 16.1359 0.504794 16.3135 0.663022 16.4478C0.704252 16.4821 0.747543 16.5139 0.792657 16.5431C0.792657 16.5431 0.719727 16.4954 0.679217 16.4558L5.58903 20.6099C5.79672 20.7974 6.06827 20.9021 6.35056 20.9038H17.7663C18.027 20.8971 18.2813 20.8232 18.5035 20.6893C18.6292 20.622 18.7417 20.5332 18.8357 20.4272L18.8762 20.3716L18.941 20.2922L18.9896 20.2048L19.5244 20.6576C19.7291 20.8376 19.9948 20.9366 20.2698 20.9356H31.7097C31.9701 20.927 32.224 20.8532 32.447 20.7211C32.5699 20.6496 32.6817 20.5613 32.7792 20.459L32.8197 20.4034L32.8845 20.324C32.9189 20.2737 32.9488 20.2205 32.9736 20.1651C33.0001 20.1169 33.0218 20.0664 33.0384 20.0142L36.3197 9.24362V9.14829C36.3238 9.11133 36.3238 9.07406 36.3197 9.0371V8.96563C36.3237 8.94193 36.3237 8.91781 36.3197 8.89411C36.3234 8.84388 36.3234 8.79345 36.3197 8.74318H37.373C37.4646 8.75143 37.5568 8.75143 37.6484 8.74318H37.7214C37.7807 8.72585 37.8378 8.70183 37.8915 8.67171H37.9726L38.1184 8.56052L38.1832 8.51285L38.2966 8.36986V8.32225L38.3776 8.1872C38.3731 8.16094 38.3731 8.13405 38.3776 8.10779C38.3733 8.0949 38.3733 8.08096 38.3776 8.06806C38.3949 8.0215 38.4084 7.97368 38.4182 7.92507C38.4144 7.90941 38.4144 7.89307 38.4182 7.87741C38.4142 7.85376 38.4142 7.82959 38.4182 7.80594C38.4182 7.80594 38.5802 7.49615 38.5802 7.48028Z" fill="black"/>
<path d="M16.9723 3.44532C17.0153 3.48346 17.0453 3.53359 17.0584 3.58898C17.0714 3.64437 17.0668 3.70235 17.0452 3.75509L13.4561 15.5424C13.4109 15.671 13.3184 15.7786 13.1968 15.8442C13.0978 15.9091 12.9833 15.9474 12.8646 15.9554H1.45705C1.35963 15.9508 1.26733 15.9112 1.19778 15.8442C1.15641 15.8067 1.12737 15.7579 1.11438 15.7042C1.10139 15.6504 1.10505 15.5941 1.12487 15.5424L4.72214 3.75509C4.76358 3.62478 4.85314 3.51431 4.97329 3.44532C5.07388 3.38509 5.18787 3.34966 5.30548 3.34206H16.713C16.8097 3.34298 16.9024 3.3799 16.9723 3.44532ZM11.0173 13.1674L13.1644 6.13001H7.15274L5.0138 13.1674H11.0173ZM27.8613 3.56446C27.9002 3.60881 27.9489 3.64397 28.0036 3.66735C28.0583 3.69073 28.1177 3.70172 28.1773 3.69949H29.66C29.7164 3.70003 29.772 3.68646 29.8217 3.66006C29.8713 3.63365 29.9132 3.59528 29.9435 3.54858C29.9698 3.5121 29.9885 3.4708 29.9982 3.42713C30.0079 3.38347 30.0086 3.33834 30.0002 3.29441L29.7086 1.19748C29.6808 1.10043 29.6309 1.01082 29.5628 0.935366C29.5238 0.891023 29.4752 0.855858 29.4205 0.83248C29.3658 0.809103 29.3064 0.798119 29.2468 0.800337H27.7641C27.7076 0.7998 27.652 0.813373 27.6024 0.839778C27.5528 0.866184 27.5108 0.904549 27.4805 0.951257C27.4238 1.06245 27.3995 1.13394 27.4238 1.19748L27.7236 3.29441C27.739 3.39651 27.7872 3.49112 27.8613 3.56446ZM32.5686 1.1816C32.5408 1.08454 32.4909 0.994927 32.4227 0.91948C32.3854 0.875299 32.3382 0.840144 32.2848 0.816725C32.2315 0.793311 32.1733 0.782264 32.1149 0.784451H30.6241C30.5686 0.782901 30.5136 0.796109 30.4651 0.822676C30.4166 0.849243 30.3764 0.888188 30.3486 0.935366C30.2947 1.00583 30.2714 1.09435 30.2838 1.1816L30.5836 3.27852C30.6024 3.37955 30.6501 3.47322 30.7213 3.54858C30.7609 3.59205 30.8097 3.62663 30.8643 3.64993C30.9188 3.67324 30.9778 3.68472 31.0373 3.6836H32.5281C32.5835 3.68432 32.638 3.67076 32.6863 3.64427C32.7347 3.61778 32.7751 3.57931 32.8035 3.5327C32.8317 3.49716 32.8514 3.45588 32.8612 3.4119C32.8711 3.36792 32.8707 3.32235 32.8602 3.27852L32.5686 1.1816ZM26.5569 4.35875L26.411 3.32618H19.2246C19.1118 3.33227 19.0026 3.36794 18.9086 3.42943C18.849 3.46134 18.797 3.50555 18.7565 3.55903C18.7159 3.61252 18.6877 3.67398 18.6737 3.73921L18.0742 5.70903C18.0502 5.75826 18.042 5.81349 18.0507 5.86737C18.0594 5.92125 18.0845 5.97126 18.1228 6.01088C18.1911 6.07384 18.2803 6.11054 18.3739 6.11414H27.1079L24.9608 13.1516H16.2512C16.1389 13.1541 16.0295 13.1871 15.9353 13.2468C15.8207 13.3182 15.737 13.4285 15.7003 13.5566L15.0926 15.5265C15.0728 15.577 15.0676 15.6319 15.0776 15.6852C15.0876 15.7385 15.1124 15.788 15.1493 15.8283C15.2155 15.8955 15.3054 15.9352 15.4005 15.9395H26.8405C26.9588 15.9295 27.0728 15.8913 27.1726 15.8283C27.2923 15.7624 27.382 15.6546 27.4238 15.5265L30.7132 4.7559H27.0106C26.9519 4.75703 26.8935 4.74634 26.8392 4.72448C26.7848 4.70262 26.7357 4.67005 26.6947 4.62881C26.6277 4.55678 26.5803 4.46937 26.5569 4.37464V4.35875Z" fill="white"/>
</g>
<defs>
<clipPath id="clip0_211_2053">
<rect width="38.2838" height="20.8821" fill="white" transform="translate(0.299377 0.0534668)"/>
</clipPath>
</defs>
</svg>
