<svg width="33" height="21" viewBox="0 0 33 21" fill="none" xmlns="http://www.w3.org/2000/svg">
<g clip-path="url(#clip0_211_2057)">
<path d="M30.7852 3.23083C30.7852 3.25437 30.7852 3.28379 30.779 3.30144C30.7484 3.53092 30.7484 3.76041 30.7667 3.99578C30.779 4.05462 30.7913 4.11346 30.8403 4.16054C30.92 4.24879 31.0426 4.23115 31.0917 4.12523C31.1162 4.07227 31.1162 4.01931 31.1039 3.96636C31.0426 3.74275 31.0304 3.50739 31.0243 3.2779C31.0243 3.26613 31.0243 3.24848 31.0243 3.23083C31.0917 3.22495 31.153 3.21906 31.2082 3.21906C31.2511 3.21318 31.2879 3.20729 31.3186 3.18964C31.4105 3.14257 31.4105 3.04254 31.3124 2.99546C31.2756 2.97781 31.2266 2.97192 31.1837 2.97192C31.0304 2.97781 30.8771 2.97781 30.7238 2.97781C30.6687 2.97781 30.6135 2.9837 30.5583 2.98958C30.5276 2.99546 30.4909 2.99546 30.4664 3.01312C30.4234 3.03077 30.3989 3.06019 30.3989 3.10138C30.405 3.14257 30.4234 3.1661 30.4664 3.18376C30.4909 3.20141 30.5215 3.20729 30.5522 3.20729C30.6257 3.21318 30.7055 3.22495 30.7852 3.23083ZM32.4711 3.5015C32.4711 3.50739 32.4772 3.51327 32.4772 3.51327C32.5018 3.67214 32.5263 3.82514 32.5447 3.97812C32.5508 4.03108 32.557 4.07815 32.5937 4.11934C32.6734 4.21937 32.7961 4.20761 32.8512 4.10169C32.8758 4.04873 32.8819 3.99578 32.8696 3.93693C32.8328 3.76041 32.8144 3.58388 32.7777 3.41324C32.7531 3.30732 32.7225 3.20729 32.6918 3.11315C32.6734 3.05431 32.6305 3.01311 32.557 3.00723C32.4834 2.99546 32.4282 3.03077 32.3975 3.08373C32.3608 3.1308 32.3301 3.17787 32.3056 3.23083C32.2627 3.32498 32.2259 3.41913 32.1769 3.50739C32.1707 3.53093 32.1646 3.54858 32.1523 3.56623C32.1462 3.55446 32.1401 3.54858 32.1401 3.54858C32.0603 3.40147 31.9868 3.25437 31.9071 3.11315C31.8948 3.10138 31.8887 3.08961 31.8826 3.07784C31.8458 3.02488 31.8029 2.99546 31.7354 2.99546C31.6741 3.00134 31.625 3.03665 31.5944 3.08961C31.5821 3.11315 31.5821 3.1308 31.576 3.15434C31.5515 3.34263 31.5208 3.53092 31.4963 3.71922C31.484 3.82514 31.4779 3.93105 31.4779 4.03697C31.4718 4.0605 31.4779 4.08992 31.4902 4.11346C31.5025 4.16053 31.5392 4.18996 31.5883 4.19584C31.6496 4.20172 31.6925 4.18407 31.7109 4.137C31.7293 4.10169 31.7354 4.07227 31.7416 4.04285C31.7661 3.93693 31.7845 3.8369 31.8029 3.73687C31.8151 3.67803 31.8212 3.63096 31.8397 3.56623C31.8519 3.58977 31.8641 3.60742 31.8764 3.62507C31.9316 3.69568 31.9868 3.76629 32.0542 3.82514C32.1217 3.87221 32.1769 3.86632 32.232 3.81336C32.2443 3.8016 32.2504 3.79571 32.2627 3.78394C32.3179 3.70157 32.3853 3.61919 32.4405 3.53681C32.4527 3.52504 32.4589 3.51327 32.4711 3.5015Z" fill="#3A3B7B"/>
<path d="M18.3449 3.3465C18.3023 3.45832 18.2941 3.53889 18.3138 3.60585C18.3355 3.69691 18.392 3.72672 18.4685 3.70356C19.1886 3.53265 20.7677 4.01776 21.3523 4.15296C21.4902 4.18135 21.6024 4.01053 21.5083 3.85737C21.371 3.70905 19.7926 3.07403 19.1903 3.03941C18.9543 3.0266 18.5323 2.9685 18.3449 3.3465Z" fill="#3A3B7B"/>
<path d="M24.5161 1.29086C24.5929 1.33338 24.6358 1.37393 24.657 1.41925C24.6885 1.47869 24.6719 1.51981 24.6189 1.54079C24.1429 1.76377 23.5094 2.72371 23.2538 3.05478C23.1918 3.13094 23.0488 3.08669 23.0272 2.96144C23.0317 2.81983 23.5931 1.77808 23.9065 1.49434C24.0297 1.38356 24.2331 1.1662 24.5161 1.29086Z" fill="#3A3B7B"/>
<path d="M20.7254 0.818234C20.8176 0.751539 20.9134 0.728167 20.9623 0.77151C21.6805 1.36101 22.0614 2.29454 22.2972 3.14916C22.3061 3.16907 22.3067 3.19764 22.2996 3.22745C22.2966 3.25292 22.2772 3.27983 22.2464 3.30066C22.2135 3.32365 22.1852 3.33065 22.1719 3.31084C21.8571 2.89993 20.0593 1.30115 20.7254 0.818234Z" fill="#3A3B7B"/>
<path d="M5.51689 11.0386C5.68901 10.9156 5.87615 10.8132 6.07417 10.7338C6.28135 10.6769 6.50218 10.6863 6.70328 10.7606C6.90434 10.835 7.07479 10.9701 7.18873 11.1456C7.29066 11.3207 7.33053 11.5228 7.30239 11.7215C7.27426 11.9202 7.17962 12.1048 7.03268 12.2474C6.91878 12.363 6.78946 12.4637 6.64818 12.547C6.01846 12.9374 5.38313 13.3065 4.74783 13.6969C4.61783 13.7946 4.47993 13.8823 4.33543 13.959C4.11565 14.0642 3.86447 14.0924 3.62533 14.0387C3.38619 13.985 3.17413 13.8527 3.02581 13.6649C2.91494 13.5318 2.82137 13.3863 2.74717 13.2316C2.1453 12.0174 1.52115 10.8086 0.941566 9.57306C0.674068 9.03822 0.456728 8.4231 0.244959 7.8294C0.153339 7.6569 0.135447 7.45692 0.195095 7.27195C0.254742 7.08697 0.387223 6.93163 0.564355 6.83896C0.741489 6.74628 0.949297 6.72362 1.14359 6.77574C1.33788 6.82785 1.50332 6.95067 1.60473 7.11803C1.91644 7.5156 2.19236 7.9379 2.42952 8.38034C3.03138 9.45006 3.60539 10.5198 4.18497 11.5574C4.21872 11.6148 4.25593 11.6701 4.29642 11.7232C4.73265 11.5472 5.14295 11.317 5.51689 11.0386Z" fill="#3A3B7B"/>
<path d="M11.7398 10.6654C10.3634 12.2112 8.05619 11.8207 6.89704 9.831C6.07224 8.41894 5.92736 6.0869 7.72184 4.61602C8.10503 4.30807 8.56323 4.0983 9.05372 4.00626C9.65512 3.92351 10.2684 4.02534 10.8059 4.2972C11.3433 4.56906 11.7775 4.99703 12.0464 5.51995C13.0272 7.23154 12.8879 9.41379 11.7398 10.6654ZM11.1826 7.06037C11.0363 6.63977 10.743 6.28069 10.3522 6.0441C10.1311 5.89284 9.8624 5.8193 9.59142 5.83586C9.3204 5.85242 9.06363 5.95808 8.86426 6.13503C8.06736 6.81433 7.90014 8.4243 8.47971 9.38172C8.5536 9.53784 8.66208 9.67657 8.79766 9.78824C8.93324 9.8999 9.09261 9.98179 9.2646 10.0281C9.43659 10.0745 9.61703 10.0842 9.79337 10.0567C9.9697 10.029 10.1376 9.96482 10.2854 9.86843C10.7173 9.54697 11.0343 9.10434 11.192 8.60208C11.3499 8.09977 11.3407 7.56278 11.1659 7.06574L11.1826 7.06037Z" fill="#3A3B7B"/>
<path d="M17.3572 7.73448C17.2163 7.76357 17.0707 7.76531 16.9291 7.73957C16.7875 7.71384 16.6526 7.66122 16.5325 7.58474C16.4274 7.52702 16.3369 7.4477 16.2675 7.35242C16.1982 7.25713 16.1518 7.14831 16.1315 7.03371C16.1113 6.91915 16.1177 6.8017 16.1504 6.68981C16.1831 6.57792 16.2413 6.47437 16.3207 6.38661C16.4591 6.21025 16.6554 6.084 16.878 6.02826C17.4591 5.8664 18.0573 5.76772 18.6613 5.73409C18.794 5.71928 18.9285 5.73006 19.0568 5.76579C19.1851 5.80158 19.3047 5.86154 19.4085 5.94229C19.5123 6.02298 19.5983 6.12281 19.6614 6.23585C19.7245 6.3489 19.7634 6.4729 19.7759 6.60058C19.95 7.22772 19.9691 7.88528 19.8316 8.52077C19.3301 10.5747 17.6025 11.2807 15.6631 10.6228C15.1187 10.4469 14.6414 10.1191 14.2922 9.68142C13.8264 9.15429 13.4962 8.52958 13.3281 7.85752C13.1919 7.25906 13.2068 6.63806 13.3716 6.04629C13.5364 5.45452 13.8463 4.90915 14.2755 4.45575C14.6827 3.96295 15.2113 3.57511 15.8136 3.32717C16.1942 3.12584 16.6395 3.06859 17.0619 3.16671C17.1577 3.19216 17.2447 3.24175 17.3138 3.31035C17.3829 3.37894 17.4317 3.46403 17.455 3.5568C17.4783 3.64956 17.4753 3.74662 17.4464 3.83792C17.4174 3.92921 17.3636 4.01141 17.2904 4.07599C17.1512 4.1969 17 4.30439 16.839 4.39691C16.3435 4.69973 15.9124 5.08994 15.5684 5.54687C15.3429 5.84255 15.1876 6.18209 15.1134 6.54153C15.0393 6.90098 15.0481 7.27167 15.1393 7.62754C15.2657 8.11274 15.5461 8.54825 15.9417 8.87375C17.1678 9.94352 18.7616 8.91119 18.483 7.45101C18.0762 7.5473 17.7195 7.64892 17.3572 7.73448Z" fill="#3A3B7B"/>
<path d="M24.8473 10.7511C23.0361 11.8209 20.9742 10.7511 20.5227 8.50468C20.194 6.90008 20.8181 4.65362 23.0027 3.79782C23.4675 3.61966 23.9716 3.55711 24.4683 3.61597C25.0651 3.72082 25.6126 4.0028 26.0335 4.42215C26.4544 4.84149 26.7276 5.37705 26.8145 5.95336C27.1823 7.86282 26.3464 9.90068 24.8473 10.7511ZM25.4771 7.15144C25.4765 6.70712 25.3127 6.27716 25.0145 5.9373C24.8551 5.72709 24.6246 5.57647 24.3624 5.5111C24.1002 5.44577 23.8225 5.46972 23.5767 5.57895C22.5959 5.98542 21.9048 7.46166 22.1556 8.54749C22.1748 8.71788 22.2324 8.88221 22.3247 9.02897C22.4169 9.17573 22.5414 9.30139 22.6895 9.39718C22.8375 9.49293 23.0056 9.55651 23.182 9.58344C23.3584 9.61033 23.5387 9.59996 23.7104 9.55303C24.2289 9.3792 24.6778 9.05434 24.9945 8.62378C25.3112 8.19322 25.4799 7.67848 25.4771 7.15144Z" fill="#3A3B7B"/>
<path d="M28.646 11.2005C28.6187 11.3963 28.5115 11.5736 28.3479 11.6935C28.1843 11.8133 27.9779 11.8659 27.7739 11.8397C27.5699 11.8134 27.3852 11.7105 27.2603 11.5535C27.1354 11.3966 27.0806 11.1984 27.108 11.0026C27.1353 10.8068 27.2426 10.6295 27.4061 10.5097C27.5697 10.3898 27.7761 10.3372 27.9801 10.3634C28.1841 10.3897 28.3688 10.4926 28.4937 10.6496C28.6186 10.8066 28.6734 11.0048 28.646 11.2005ZM28.1612 3.98511C28.2672 3.82974 28.4227 3.71143 28.6045 3.64781C28.7863 3.58419 28.9846 3.57868 29.1699 3.63209C29.3583 3.67733 29.5247 3.78331 29.6414 3.93229C29.7581 4.08127 29.8179 4.2642 29.8108 4.45044C29.7862 4.74918 29.7397 5.04588 29.6715 5.33832C29.4876 6.32784 29.3092 7.31733 29.1142 8.29616C29.025 8.68663 28.908 9.06103 28.7798 9.45681C28.7352 9.58054 28.6607 9.69235 28.5625 9.78309C28.5014 9.85136 28.4234 9.9037 28.3356 9.93531C28.2479 9.96697 28.1532 9.97683 28.0604 9.96403C27.9677 9.95123 27.8797 9.91618 27.8048 9.86214C27.7299 9.80805 27.6704 9.73671 27.6318 9.65473C27.5656 9.50765 27.5296 9.3496 27.5259 9.18939C27.5259 8.52615 27.5259 7.85758 27.5705 7.18896C27.6463 6.2348 27.7953 5.28729 28.0163 4.35416C28.0424 4.22915 28.0914 4.1096 28.1612 4.00115V3.98511Z" fill="#3A3B7B"/>
<path fill-rule="evenodd" clip-rule="evenodd" d="M3.16231 15.4985C3.09651 15.6394 3.07847 15.7966 3.11062 15.9479C3.13201 16.1473 3.179 16.3434 3.2505 16.5318C3.33978 16.7624 3.43968 16.9905 3.56285 17.2717C3.59118 17.3364 3.62078 17.4039 3.65176 17.4749C3.81787 17.8558 4.02629 18.3426 4.3043 19.047C4.38299 19.2471 4.45287 19.4489 4.52323 19.6521C4.55166 19.7341 4.58019 19.8165 4.60939 19.899C4.71406 20.1924 4.89416 20.4561 5.13289 20.665C5.23426 20.7798 5.36872 20.8635 5.51949 20.9053C5.6732 20.948 5.83669 20.9453 5.98877 20.8976C6.14084 20.8498 6.27442 20.7593 6.37214 20.6376C6.46795 20.5184 6.52492 20.3747 6.536 20.2246C6.59816 19.9322 6.57694 19.629 6.47449 19.3471C6.3119 18.879 6.12668 18.4102 5.9131 17.9517L5.91212 17.9497C5.56076 17.2323 5.2036 16.52 4.82954 15.8073L4.82674 15.8023C4.71724 15.6166 4.57493 15.4507 4.40622 15.3118C4.29668 15.1879 4.1456 15.1043 3.97875 15.0755C3.80835 15.0461 3.6326 15.0757 3.48289 15.1592C3.34126 15.2368 3.22899 15.3556 3.16231 15.4985Z" fill="#3A3B7B"/>
<path fill-rule="evenodd" clip-rule="evenodd" d="M8.52889 13.732C7.97797 13.5951 7.4026 13.5751 6.84289 13.6736C6.40936 13.7145 5.98299 13.8105 5.68692 14.0006C5.53633 14.0974 5.41459 14.2216 5.34686 14.3795C5.27877 14.5383 5.27008 14.7199 5.32588 14.9222C5.42776 15.2928 5.56007 15.6531 5.69192 16.0123L5.71328 16.0705L5.71379 16.0717C6.11077 17.1152 6.51153 18.1551 6.91594 19.1914C6.96309 19.3547 7.02978 19.5123 7.11466 19.6609L7.11625 19.6636C7.22837 19.8482 7.37217 20.0133 7.54159 20.152C7.62632 20.2283 7.73111 20.281 7.84472 20.3046C7.95946 20.3284 8.07878 20.3215 8.18968 20.2846C8.30063 20.2478 8.39887 20.1824 8.47374 20.0956C8.5474 20.0102 8.59563 19.9074 8.61334 19.7979C8.68644 19.5005 8.66302 19.1888 8.54618 18.9045C8.50973 18.8089 8.48113 18.7111 8.45098 18.6082C8.44093 18.5739 8.43075 18.539 8.42 18.5034C9.3457 18.1561 10.3307 17.6892 10.677 16.6028C10.8127 16.2274 10.824 15.8208 10.7094 15.439C10.5947 15.0567 10.3594 14.7178 10.0359 14.4691C9.59555 14.1209 9.08122 13.8693 8.52889 13.732ZM7.00179 15.0645C7.02002 15.0595 7.03838 15.0548 7.0568 15.0504C7.65946 14.9595 8.27605 15.0807 8.79304 15.3915C9.02088 15.5436 9.11421 15.7126 9.13025 15.8752C9.14679 16.0426 9.08337 16.224 8.95597 16.3983C8.71523 16.7277 8.27591 16.9914 7.87907 17.0405C7.58978 16.4011 7.29599 15.7358 7.00179 15.0645Z" fill="#3A3B7B"/>
<path d="M12.2018 12.5616C12.8579 12.2708 13.6706 12.2206 14.3065 12.4251C14.4667 12.4698 14.6057 12.5667 14.6996 12.699C14.793 12.8306 14.8361 12.9891 14.8217 13.1475C14.8208 13.2504 14.7945 13.3516 14.745 13.4429C14.6946 13.5358 14.6216 13.6158 14.5323 13.676C14.4429 13.7361 14.3398 13.7748 14.2316 13.7886C14.1233 13.8024 14.0133 13.7911 13.9106 13.7554L13.9028 13.7527L13.8955 13.749C13.8429 13.7226 13.7871 13.7027 13.7294 13.6898L13.7258 13.689C13.2784 13.575 12.8564 13.7639 12.7023 13.9961C12.6288 14.1068 12.6196 14.2186 12.6809 14.3203C12.7464 14.4291 12.9073 14.5513 13.2327 14.6384C13.3222 14.662 13.4139 14.6847 13.507 14.7078C13.7643 14.7718 14.0317 14.8382 14.2903 14.9303L14.2913 14.9307C15.4843 15.3663 15.9285 16.2686 15.7764 17.1172C15.626 17.9564 14.8957 18.7202 13.7976 18.9004C13.398 18.9854 12.9821 18.9688 12.5912 18.8523C12.1993 18.7355 11.846 18.5223 11.5665 18.2338L11.5592 18.2263C11.4709 18.1176 11.4116 17.9899 11.3853 17.8545C11.361 17.7322 11.3738 17.6059 11.4219 17.4903C11.4698 17.3754 11.5507 17.276 11.6552 17.2036C11.7655 17.1214 11.8986 17.0722 12.0378 17.0619C12.1765 17.0517 12.3154 17.0806 12.4372 17.1451C12.5589 17.2015 12.6721 17.2735 12.7737 17.3591L12.7757 17.3607C12.9554 17.5185 13.1729 17.5596 13.3814 17.5215C13.593 17.4829 13.7919 17.3627 13.9199 17.2033C14.047 17.0449 14.0981 16.8567 14.0375 16.674C13.9765 16.49 13.7933 16.2838 13.3907 16.1114C13.2854 16.0685 13.1763 16.034 13.0628 16.0003C13.0321 15.9912 13.001 15.9822 12.9695 15.973C12.8856 15.9485 12.7992 15.9233 12.7145 15.8956C12.6562 15.8765 12.5983 15.8584 12.541 15.8405C12.3844 15.7915 12.2317 15.7438 12.0848 15.6798C11.765 15.5753 11.4887 15.3747 11.297 15.1075C11.1046 14.8393 11.0077 14.5186 11.0209 14.1932C11.0219 13.4003 11.5422 12.8541 12.2018 12.5616Z" fill="#3A3B7B"/>
<path d="M20.5196 12.4771C20.3923 12.4175 20.2517 12.3892 20.1102 12.3947C19.9688 12.4003 19.831 12.4396 19.7093 12.5091C19.5884 12.5781 19.4872 12.6747 19.4147 12.7904C19.3482 12.8878 19.3021 12.9967 19.2792 13.1111C19.2562 13.2253 19.2568 13.3428 19.2808 13.4568C19.3045 13.6033 19.3307 13.7458 19.3567 13.8863C19.3996 14.1189 19.4414 14.3462 19.469 14.578L19.47 14.5839C19.5328 14.9473 19.5656 15.315 19.5686 15.6833L19.5689 15.6886C19.5903 16.0864 19.4491 16.4765 19.1754 16.7761L19.1711 16.7814C19.082 16.8909 18.963 16.9745 18.8272 17.0228C18.6915 17.0711 18.5445 17.0822 18.4026 17.0549C18.2606 17.0276 18.1294 16.9629 18.0236 16.868C17.9178 16.7732 17.8415 16.6516 17.8034 16.5176C17.7221 16.2352 17.675 15.9446 17.663 15.6518L17.8019 13.5294C17.804 13.5017 17.8063 13.4733 17.8087 13.4445C17.814 13.3801 17.8194 13.3144 17.8217 13.2532C17.8249 13.1631 17.8221 13.0704 17.8003 12.9827C17.7779 12.893 17.7353 12.8078 17.6598 12.7351C17.585 12.6632 17.484 12.6102 17.357 12.5741C17.1273 12.5103 16.9331 12.5123 16.7712 12.5782C16.6093 12.6442 16.4983 12.7666 16.4198 12.908C16.3419 13.0482 16.2919 13.2141 16.254 13.3804C16.2259 13.5038 16.2033 13.6333 16.1819 13.7565C16.1745 13.799 16.1672 13.8407 16.1599 13.8812L16.1597 13.8824C16.0449 14.5585 16.0107 15.2449 16.0578 15.9284C16.0666 16.2977 16.1469 16.6623 16.2946 17.0035C16.4612 17.4438 16.763 17.8252 17.1601 18.0975C17.558 18.3703 18.0329 18.5206 18.5219 18.5286C19.0108 18.5365 19.4908 18.4017 19.8981 18.142C20.3048 17.8826 20.62 17.5109 20.802 17.076C21.0566 16.5221 21.1761 15.9196 21.1514 15.3146C21.1365 14.8729 21.1114 14.4278 21.0865 13.9849C21.0743 13.7677 21.0621 13.5509 21.0511 13.3355C21.0456 13.1195 20.9714 12.9102 20.8384 12.7358C20.7561 12.6256 20.6465 12.5367 20.5196 12.4771Z" fill="#3A3B7B"/>
<path d="M25.0222 15.8051C25.0093 15.8208 24.9957 15.8371 24.9815 15.854C24.8781 15.2811 24.7822 14.7084 24.6861 14.1348C24.6517 13.929 24.617 13.7223 24.5822 13.5162L24.5783 13.4932L24.5656 13.4734C24.5416 13.436 24.5392 13.3993 24.5392 13.3212V13.3121L24.5378 13.3032C24.5118 13.1417 24.4357 12.9915 24.3195 12.8721C24.2036 12.7531 24.053 12.6702 23.8874 12.6342C23.7221 12.5951 23.5484 12.6037 23.3882 12.659C23.2283 12.7142 23.089 12.8134 22.9876 12.9442C22.9033 13.0445 22.8342 13.1558 22.7824 13.2747C22.6648 13.5309 22.5463 13.7877 22.4274 14.0452L22.4253 14.0497C22.1285 14.6926 21.8297 15.3398 21.5395 15.992L21.5386 15.9941C21.3605 16.4171 21.2135 16.8627 21.067 17.307C21.0377 17.3957 21.0085 17.4843 20.979 17.5727C20.9261 17.7129 20.9029 17.8619 20.9109 18.0107C20.9012 18.144 20.9345 18.277 21.0062 18.3916C21.0793 18.5086 21.1888 18.6006 21.3192 18.6548C21.4574 18.713 21.612 18.7253 21.7584 18.6899C21.9045 18.6545 22.0343 18.5736 22.1272 18.4598C22.2459 18.3197 22.3481 18.1668 22.4313 18.0049C22.6771 17.5223 22.912 17.0339 23.1458 16.5476C23.2363 16.3595 23.3242 16.1911 23.4242 16.0076C23.4311 16.0302 23.4381 16.0523 23.4454 16.0744C23.5502 16.5173 23.7271 16.9416 23.9697 17.3317C24.0155 17.4143 24.0795 17.4865 24.1571 17.5433C24.2356 17.6009 24.3262 17.6412 24.4226 17.6617C24.519 17.6822 24.619 17.6823 24.7154 17.662C24.8117 17.6417 24.9026 17.6013 24.9812 17.5441L25.1367 17.4324L26.3436 16.4567L26.2722 16.8932C26.1742 17.4932 26.077 18.0883 25.9737 18.6834C25.9062 18.9472 25.9063 19.2228 25.974 19.4865C26.0034 19.6349 26.0782 19.7715 26.1888 19.8789C26.3004 19.9873 26.4433 20.0608 26.5991 20.0902C26.7548 20.1195 26.9161 20.1033 27.0621 20.0435C27.2059 19.9846 27.3283 19.8862 27.4138 19.7607C27.6128 19.5238 27.7367 19.2369 27.7707 18.9342C27.8219 18.5068 27.8798 18.0736 27.9377 17.6405C28.0044 17.1414 28.0711 16.6423 28.1274 16.1528L28.1276 16.1513C28.1818 15.6155 28.208 15.0775 28.2062 14.5392C28.2181 14.3691 28.1739 14.1996 28.0799 14.0548C27.9855 13.9094 27.8458 13.7964 27.6806 13.7318C27.5088 13.6568 27.3165 13.6368 27.132 13.6747C26.9486 13.7123 26.7827 13.8051 26.6581 13.9394C26.4355 14.137 26.2267 14.3485 26.033 14.5724L26.0317 14.5739C25.8202 14.8268 25.6102 15.0847 25.4015 15.3409C25.2746 15.4967 25.1481 15.6521 25.0222 15.8051Z" fill="#3A3B7B"/>
</g>
<defs>
<clipPath id="clip0_211_2057">
<rect width="32.7153" height="20.186" fill="white" transform="translate(0.160461 0.749512)"/>
</clipPath>
</defs>
</svg>
