<svg width="28" height="21" viewBox="0 0 28 21" fill="none" xmlns="http://www.w3.org/2000/svg">
<g clip-path="url(#clip0_211_2050)">
<path fill-rule="evenodd" clip-rule="evenodd" d="M7.04589 3.61357L0.0950928 10.4945C1.48538 11.8708 3.07357 13.0308 4.80514 13.9382C5.28376 15.195 6.03398 16.3737 7.05579 17.3852C10.9001 21.1908 17.1329 21.1908 20.9772 17.3852C21.999 16.3737 22.7492 15.195 23.2278 13.9381C24.9594 13.0308 26.5476 11.8708 27.9379 10.4945L20.9927 3.61917C20.9875 3.61402 20.9824 3.60888 20.9772 3.60374C17.1329 -0.201899 10.9001 -0.201899 7.05579 3.60374C7.0525 3.60702 7.04919 3.61029 7.04589 3.61357ZM20.3121 15.1797C18.2865 15.8564 16.1602 16.2029 14.0165 16.2029C11.8728 16.2029 9.74651 15.8564 7.72095 15.1797C7.94042 15.4679 8.18272 15.7445 8.44793 16.0071C11.5234 19.0516 16.5096 19.0516 19.585 16.0071C19.8502 15.7445 20.0926 15.4679 20.3121 15.1797ZM8.59069 4.84407C9.11295 5.18564 9.66828 5.47792 10.2494 5.71622C11.4437 6.20594 12.7237 6.458 14.0165 6.458C15.3092 6.458 16.5893 6.20594 17.7836 5.71622C18.3647 5.47792 18.92 5.18563 19.4423 4.84406C16.4053 1.98331 11.6277 1.98332 8.59069 4.84407Z" fill="#3B4158"/>
</g>
<defs>
<clipPath id="clip0_211_2050">
<rect width="27.8428" height="19.4899" fill="white" transform="translate(0.0950928 0.749512)"/>
</clipPath>
</defs>
</svg>
