<svg width="29" height="20" viewBox="0 0 29 20" fill="none" xmlns="http://www.w3.org/2000/svg">
<g clip-path="url(#clip0_211_2073)">
<path d="M27.0806 1.03286C27.0806 1.35723 27.3468 1.62017 27.6752 1.62017H28.2697C28.5981 1.62017 28.8643 1.35723 28.8643 1.03286C28.8643 0.708504 28.5981 0.445557 28.2697 0.445557H27.6752C27.3468 0.445557 27.0806 0.708504 27.0806 1.03286Z" fill="#212326"/>
<path d="M9.83839 19.2394H12.7267L11.8858 18.4088C11.6628 18.1886 11.3604 18.0648 11.045 18.0648H9.83839C5.24126 18.0648 1.51456 14.3836 1.51456 9.84249C1.51456 5.30142 5.24126 1.62018 9.83839 1.62017H19.3513C23.9485 1.62017 27.6752 5.30142 27.6752 9.84249C27.6752 14.3836 23.9485 18.0648 19.3513 18.0648H15.7927C15.3197 18.0648 14.866 17.8792 14.5315 17.5488L13.5464 16.5757C12.9889 16.025 12.2327 15.7156 11.4443 15.7156H9.83839C6.55471 15.7156 3.8928 13.0861 3.8928 9.84249C3.8928 6.59886 6.55471 3.96941 9.83839 3.96941H19.3513C22.635 3.96941 25.2969 6.59886 25.2969 9.84249C25.2969 13.0861 22.635 15.7156 19.3513 15.7156H17.0664C16.5933 15.7156 16.1396 15.5299 15.8051 15.1995L14.82 14.2264C14.2625 13.6757 13.5063 13.3663 12.7179 13.3663H9.83839C7.86821 13.3663 6.27103 11.7886 6.27103 9.84249C6.27103 7.89634 7.86821 6.31864 9.83839 6.31864H19.3513C21.3215 6.31864 22.9187 7.89634 22.9187 9.84249C22.9187 11.7649 21.3602 13.3278 19.4233 13.3656L19.4229 13.3663H18.5528C18.0797 13.3663 17.626 13.1807 17.2915 12.8503L16.3064 11.8772C15.849 11.4253 15.2578 11.1359 14.6247 11.0466L14.5949 11.0171H9.83839C9.18166 11.0171 8.64927 10.4912 8.64927 9.84249C8.64927 9.19378 9.18166 8.66788 9.83839 8.66788H19.3513C20.0081 8.66788 20.5405 9.19378 20.5405 9.84249C20.5405 10.4912 20.0081 11.0171 19.3513 11.0171H16.9731L17.814 11.8477C18.0369 12.068 18.3394 12.1917 18.6548 12.1917H19.3513C20.6648 12.1917 21.7296 11.1399 21.7296 9.84249C21.7296 8.54506 20.6648 7.49326 19.3513 7.49326H9.83839C8.52494 7.49326 7.46015 8.54506 7.46015 9.84249C7.46015 11.1399 8.52494 12.1917 9.83839 12.1917H14.2043C14.6774 12.1917 15.1311 12.3774 15.4656 12.7078L16.4507 13.6809C17.0082 14.2316 17.7643 14.541 18.5528 14.541H19.6486V14.5319C22.1371 14.3804 24.1078 12.3387 24.1078 9.84249C24.1078 7.24762 21.9782 5.14403 19.3513 5.14403H9.83839C7.21148 5.14403 5.08191 7.24762 5.08191 9.84249C5.08191 12.4374 7.21148 14.541 9.83839 14.541H12.7179C13.191 14.541 13.6447 14.7266 13.9792 15.057L14.9643 16.0301C15.5218 16.5808 16.2779 16.8902 17.0664 16.8902H19.3513C23.2917 16.8902 26.4861 13.7348 26.4861 9.84249C26.4861 5.95014 23.2917 2.79479 19.3513 2.79479H9.83839C5.89798 2.79479 2.70368 5.95014 2.70368 9.84249C2.70368 13.7348 5.89798 16.8902 9.83839 16.8902H11.4443C11.9173 16.8902 12.371 17.0758 12.7055 17.4062L13.6907 18.3793C14.2482 18.93 15.0043 19.2394 15.7927 19.2394H19.3513C24.6052 19.2394 28.8643 15.0323 28.8643 9.84249C28.8643 4.65271 24.6052 0.445556 19.3513 0.445557L9.83839 0.445559C4.58453 0.445559 0.325439 4.65271 0.325439 9.84249C0.32544 15.0323 4.58453 19.2394 9.83839 19.2394Z" fill="#212326"/>
</g>
<defs>
<clipPath id="clip0_211_2073">
<rect width="28.5388" height="18.7939" fill="white" transform="translate(0.325439 0.445557)"/>
</clipPath>
</defs>
</svg>
