<svg width="28" height="29" viewBox="0 0 28 29" fill="none" xmlns="http://www.w3.org/2000/svg">
<path fill-rule="evenodd" clip-rule="evenodd" d="M6.97901 0.679688C10.8233 0.679688 13.9397 3.79609 13.9397 7.64038V0.679688H20.9004C24.7446 0.679688 27.8611 3.79609 27.8611 7.64038C27.8611 11.4846 24.7446 14.6011 20.9004 14.6011C24.7446 14.6011 27.8611 17.7175 27.8611 21.5618C27.8611 23.4706 27.0927 25.2 25.8484 26.4575L25.8224 26.4837L25.7993 26.5067C24.5415 27.7528 22.8108 28.5225 20.9004 28.5225C19.003 28.5225 17.2829 27.7633 16.0272 26.5321C16.0109 26.516 15.9946 26.4999 15.9784 26.4837C15.9632 26.4685 15.948 26.4532 15.9329 26.4378C14.7001 25.182 13.9397 23.4606 13.9397 21.5618C13.9397 25.406 10.8233 28.5225 6.97901 28.5225C3.13472 28.5225 0.0183105 25.406 0.0183105 21.5618V14.6011H6.97901C3.13472 14.6011 0.0183105 11.4846 0.0183105 7.64038C0.0183105 3.79609 3.13472 0.679688 6.97901 0.679688ZM12.5476 7.64038C12.5476 10.7158 10.0544 13.2089 6.97901 13.2089V2.07183C10.0544 2.07183 12.5476 4.56495 12.5476 7.64038ZM26.469 21.5618C26.469 18.4863 23.9758 15.9932 20.9004 15.9932C17.825 15.9932 15.3318 18.4863 15.3318 21.5618H26.469ZM1.41045 15.9932V21.5618C1.41045 24.6372 3.90358 27.1303 6.97901 27.1303C10.0544 27.1303 12.5476 24.6372 12.5476 21.5618V15.9932H1.41045ZM15.3318 13.2089V2.07183H20.9004C23.9758 2.07183 26.469 4.56495 26.469 7.64038C26.469 10.7158 23.9758 13.2089 20.9004 13.2089H15.3318Z" fill="#263238"/>
</svg>
