<svg width="37" height="15" viewBox="0 0 37 15" fill="none" xmlns="http://www.w3.org/2000/svg">
<g clip-path="url(#clip0_211_2077)">
<path d="M8.81751 0.533936C7.40398 0.533936 6.04836 1.09545 5.04885 2.09497L1.78686 5.35695C0.787349 6.35646 0.22583 7.71208 0.22583 9.12561C0.22583 12.0692 2.61202 14.4553 5.55554 14.4553C6.96907 14.4553 8.32469 13.8938 9.3242 12.8943L11.5805 10.6379C11.5805 10.6379 11.5806 10.638 11.5805 10.6379L18.1547 4.06375C18.6321 3.58639 19.2795 3.31821 19.9546 3.31821C21.0849 3.31821 22.0431 4.05485 22.3753 5.0742L24.4501 2.9994C23.5036 1.51694 21.8439 0.533936 19.9546 0.533936C18.5411 0.533936 17.1855 1.09545 16.186 2.09497L7.35544 10.9255C6.87807 11.4029 6.23064 11.671 5.55554 11.671C4.14973 11.671 3.01011 10.5314 3.01011 9.12561C3.01011 8.45052 3.27828 7.80308 3.75564 7.32572L7.01761 4.06375C7.49498 3.58639 8.14241 3.31821 8.81751 3.31821C9.94779 3.31821 10.9059 4.05488 11.2382 5.07426L13.313 2.99945C12.3665 1.51697 10.7068 0.533936 8.81751 0.533936Z" fill="#394149"/>
<path d="M18.4925 10.9255C18.0152 11.4029 17.3677 11.671 16.6926 11.671C15.5626 11.671 14.6044 10.9346 14.2721 9.91542L12.1974 11.9902C13.1439 13.4724 14.8035 14.4553 16.6926 14.4553C18.1062 14.4553 19.4618 13.8938 20.4613 12.8943L29.2918 4.06375C29.7692 3.58639 30.4166 3.31821 31.0917 3.31821C32.4976 3.31821 33.6372 4.45784 33.6372 5.86365C33.6372 6.53874 33.369 7.18618 32.8916 7.66354L29.6297 10.9255C29.1523 11.4029 28.5049 11.671 27.8298 11.671C26.6996 11.671 25.7414 10.9345 25.4092 9.91519L23.3344 11.99C24.2809 13.4724 25.9405 14.4553 27.8298 14.4553C29.2433 14.4553 30.5989 13.8938 31.5984 12.8943L34.8604 9.63231C35.8599 8.6328 36.4214 7.27718 36.4214 5.86365C36.4214 2.92013 34.0353 0.533936 31.0917 0.533936C29.6782 0.533936 28.3226 1.09545 27.3231 2.09497L18.4925 10.9255Z" fill="#394149"/>
</g>
<defs>
<clipPath id="clip0_211_2077">
<rect width="36.1956" height="13.9214" fill="white" transform="translate(0.22583 0.533936)"/>
</clipPath>
</defs>
</svg>
